HIERARCHY
ROOT Hips
{
	OFFSET -3.958830 18.904000 13.208200
	CHANNELS 6 Xposition Yposition Zposition Zrotation Yrotation Xrotation 
	JOINT LHipJoint
	{
		OFFSET 0.000000 0.000000 0.000000
		CHANNELS 3 Zrotation Yrotation Xrotation
		JOINT LeftUpLeg
		{
			OFFSET 1.800000 -1.400000 0.085000
			CHANNELS 3 Zrotation Yrotation Xrotation
			JOINT LeftLeg
			{
				OFFSET 2.215000 -6.000000 0.000000
				CHANNELS 3 Zrotation Yrotation Xrotation
				JOINT LeftFoot
				{
					OFFSET 2.500000 -6.900000 0.000000
					CHANNELS 3 Zrotation Yrotation Xrotation
					JOINT LeftToeBase
					{
						OFFSET 0.200000 -0.500000 1.950000
						CHANNELS 3 Zrotation Yrotation Xrotation
						End Site
						{
							OFFSET 0.000000 0.000000 0.000000
						}
					}
				}
			}
		}
	}
	JOINT RHipJoint
	{
		OFFSET 0.000000 0.000000 0.000000
		CHANNELS 3 Zrotation Yrotation Xrotation
		JOINT RightUpLeg
		{
			OFFSET -1.800000 -1.400000 0.085000
			CHANNELS 3 Zrotation Yrotation Xrotation
			JOINT RightLeg
			{
				OFFSET -2.215000 -6.000000 0.000000
				CHANNELS 3 Zrotation Yrotation Xrotation
				JOINT RightFoot
				{
					OFFSET -2.500000 -6.900000 0.000000
					CHANNELS 3 Zrotation Yrotation Xrotation
					JOINT RightToeBase
					{
						OFFSET -0.200000 -0.500000 1.950000
						CHANNELS 3 Zrotation Yrotation Xrotation
						End Site
						{
							OFFSET 0.000000 0.000000 0.000000
						}
					}
				}
			}
		}
	}
	JOINT LowerBack
	{
		OFFSET 0.000000 0.000000 0.000000
		CHANNELS 3 Zrotation Yrotation Xrotation
		JOINT Spine
		{
			OFFSET -0.087000 1.940000 -0.288900
			CHANNELS 3 Zrotation Yrotation Xrotation
			JOINT Spine1
			{
				OFFSET 0.000000 1.950000 0.060000
				CHANNELS 3 Zrotation Yrotation Xrotation
				JOINT Neck
				{
					OFFSET 0.000000 0.000000 0.000000
					CHANNELS 3 Zrotation Yrotation Xrotation
					JOINT Neck1
					{
						OFFSET 0.000000 1.600000 0.340000
						CHANNELS 3 Zrotation Yrotation Xrotation
						JOINT Head
						{
							OFFSET 0.000000 1.667000 -0.240000
							CHANNELS 3 Zrotation Yrotation Xrotation
							End Site
							{
								OFFSET 0.000000 0.000000 0.000000
							}
						}
					}
				}
				JOINT LeftShoulder
				{
					OFFSET 0.000000 0.000000 0.000000
					CHANNELS 3 Zrotation Yrotation Xrotation
					JOINT LeftArm
					{
						OFFSET 2.700000 1.550000 -0.730000
						CHANNELS 3 Zrotation Yrotation Xrotation
						JOINT LeftForeArm
						{
							OFFSET 5.450000 0.000000 0.000000
							CHANNELS 3 Zrotation Yrotation Xrotation
							JOINT LeftHand
							{
								OFFSET 3.450000 0.000000 0.000000
								CHANNELS 3 Zrotation Yrotation Xrotation
								JOINT LeftHandIndex1
								{
									OFFSET 0.750000 0.000000 0.000000
									CHANNELS 3 Zrotation Yrotation Xrotation
									End Site
									{
										OFFSET 0.000000 0.000000 0.000000
									}
								}
							}
						}
					}
				}
				JOINT RightShoulder
				{
					OFFSET 0.000000 0.000000 0.000000
					CHANNELS 3 Zrotation Yrotation Xrotation
					JOINT RightArm
					{
						OFFSET -2.700000 1.550000 -0.730000
						CHANNELS 3 Zrotation Yrotation Xrotation
						JOINT RightForeArm
						{
							OFFSET -5.450000 0.000000 0.000000
							CHANNELS 3 Zrotation Yrotation Xrotation
							JOINT RightHand
							{
								OFFSET -3.450000 0.000000 0.000000
								CHANNELS 3 Zrotation Yrotation Xrotation
								JOINT RightHandIndex1
								{
									OFFSET -0.750000 0.000000 0.000000
									CHANNELS 3 Zrotation Yrotation Xrotation
									End Site
									{
										OFFSET 0.000000 0.000000 0.000000
									}
								}
							}
						}
					}
				}
			}
		}
	}
}
MOTION
Frames: 6
Frame Time: 0.016667
0.057870 16.934660 -0.333140 -0.313520 8.689606 13.729040 -14.750936 12.313824 2.927524 12.582486 -2.690076 -23.653856 -4.753720 4.109052 8.392059 -0.462129 4.115452 3.486028 -0.140830 -0.736910 -0.300430 18.652416 -11.147624 2.925507 -17.326095 3.027800 -25.550705 13.758931 -9.996612 23.386646 0.091565 -5.794090 2.418251 -0.316190 1.370550 0.999290 -4.889557 0.460594 -7.240574 20.368894 0.923835 4.862784 -5.900490 1.273096 14.926239 2.977069 1.322081 -10.907579 1.773121 2.610570 33.220757 -6.840880 5.012120 21.084840 1.403223 -0.083273 5.468116 -22.507680 -12.174879 14.607291 175.162007 -53.373314 -172.523315 -4.675768 4.189820 -0.180580 1.154100 -0.629310 0.454060 -7.184344 -1.111945 6.202572 24.760871 14.971554 10.802654 -161.980151 49.249827 -150.851393 1.722733 -2.827323 -0.165140 -0.203510 0.271720 0.200250 
0.093560 16.950530 -0.269800 -0.015143 9.310213 14.691477 -14.790654 12.267355 2.923777 12.010362 -2.821319 -23.400639 -4.657194 3.831169 6.906764 -0.507799 4.146062 3.551614 -0.208580 -0.824120 -0.360480 18.634054 -11.129081 2.837148 -17.196475 2.976139 -24.976137 13.291765 -9.426208 21.887036 0.184769 -5.665198 2.472852 -0.306780 1.504720 1.016790 -4.803131 0.470551 -7.067557 19.198888 1.644482 3.049559 -5.363062 1.552051 13.540307 2.691130 0.724656 -9.991197 1.034068 2.897645 28.760612 -7.110920 4.859090 21.246530 -1.401183 2.143445 4.934926 -20.326378 -6.161231 12.048750 173.826100 -55.170256 -170.721463 -4.867637 4.208676 -0.253950 1.260620 -0.736400 0.459970 -3.800325 -2.985729 5.469453 21.691484 9.195042 8.550630 -164.010033 49.781037 -154.314672 1.700857 -2.888796 -0.227920 -0.171070 0.323420 0.208570 
0.132830 16.970950 -0.218460 0.244940 9.955864 15.299139 -14.827174 12.220174 2.900753 11.447369 -2.927513 -23.121395 -4.542310 3.631419 5.863263 -0.591083 4.236670 3.605360 -0.262480 -0.898680 -0.409870 18.620907 -11.125547 2.739407 -17.085439 2.889895 -24.142754 12.791276 -8.877461 20.416623 0.274390 -5.584121 2.513477 -0.268210 1.656100 1.027060 -4.728337 0.501879 -6.878790 18.179494 2.145524 1.501751 -4.848643 1.731804 12.613903 2.386372 0.124634 -8.979310 0.372129 3.268140 24.828092 -7.397820 4.711870 20.865700 -4.123638 3.874846 4.302685 -18.701499 -0.941880 9.598851 171.153237 -58.167810 -167.680217 -5.064585 4.214277 -0.325150 1.382450 -0.860000 0.470160 -0.400632 -4.422679 4.640191 18.728419 3.739037 6.291355 -164.297988 51.341852 -155.900456 1.654397 -2.943881 -0.314640 -0.113960 0.376170 0.205820 
0.171600 16.992770 -0.177360 0.404912 10.504234 15.513779 -14.848755 12.179466 2.863082 11.056348 -2.972145 -22.701226 -4.462498 3.512770 5.202126 -0.679944 4.350745 3.637980 -0.287420 -0.939370 -0.427780 18.615794 -11.144130 2.656130 -16.963784 2.786480 -22.989146 12.432535 -8.368076 18.885187 0.340793 -5.529698 2.532819 -0.209300 1.782820 1.032790 -4.687631 0.570637 -6.717945 17.432888 2.499478 0.404944 -4.564282 1.907161 11.872528 2.128320 -0.297206 -7.988304 0.005284 3.723626 21.790405 -7.476520 4.612090 19.986730 -6.415541 5.397482 3.592883 -17.521683 3.367767 7.431686 167.531756 -62.139492 -164.059121 -5.227240 4.229474 -0.385200 1.485410 -0.964570 0.477830 2.464649 -5.748202 3.889969 17.110428 -1.084859 4.171806 -162.485169 54.680055 -155.156744 1.611579 -2.995973 -0.396420 -0.053100 0.414160 0.196480 
0.216900 17.011840 -0.143110 0.411619 10.849754 15.522491 -14.855059 12.137050 2.829449 10.799563 -2.974721 -22.113243 -4.417138 3.415421 4.506368 -0.828561 4.511150 3.635568 -0.331520 -1.012100 -0.445220 18.621115 -11.183560 2.578076 -16.733587 2.731618 -21.785717 11.804149 -7.846161 17.471882 0.424472 -5.481362 2.556238 -0.148930 1.905380 1.023950 -4.683469 0.681835 -6.585934 17.098806 2.825690 -0.426785 -4.566942 2.163980 11.079276 1.997328 -0.610239 -7.024143 -0.229945 4.427817 19.407625 -7.686760 4.828000 18.975910 -8.472383 6.723512 2.839026 -16.484679 6.976818 5.658715 161.880936 -67.032027 -158.502174 -5.403031 4.214684 -0.415730 1.594530 -1.084930 0.454090 4.812274 -6.952726 3.216983 16.185875 -4.885070 2.374511 -157.342235 59.346152 -149.902023 1.556776 -3.001750 -0.512960 0.018860 0.486310 0.154100 
0.263110 17.023780 -0.112740 0.374275 11.234543 15.401590 -14.854845 12.113898 2.797307 10.581752 -2.962550 -21.633974 -4.280059 3.341490 4.160918 -0.978249 4.611584 3.614076 -0.319430 -1.020470 -0.384200 18.626082 -11.228073 2.520944 -16.533418 2.653879 -20.454657 11.224312 -7.371347 16.022526 0.460710 -5.410790 2.565911 -0.074980 1.937250 1.011740 -4.692053 0.778722 -6.490874 16.928225 2.992386 -0.890011 -4.703452 2.305893 10.095193 2.042912 -0.823023 -6.165602 -0.374421 5.176724 17.625547 -8.244420 5.506190 17.258580 -10.076148 8.241915 2.162119 -15.967245 9.572012 4.624432 149.264369 -71.672615 -144.965393 -5.537815 4.136392 -0.402470 1.647030 -1.135780 0.415220 6.314630 -8.381279 2.675850 15.982660 -7.044688 1.477711 -147.693978 64.708127 -139.694481 1.550316 -2.932992 -0.599500 0.072390 0.519520 0.088430 
